<?xml version="1.0" encoding="utf-8"?>
<!-- Generator: Adobe Illustrator 26.0.1, SVG Export Plug-In . SVG Version: 6.00 Build 0)  -->
<svg version="1.1" xmlns="http://www.w3.org/2000/svg" xmlns:xlink="http://www.w3.org/1999/xlink" x="0px" y="0px"
	 viewBox="0 0 841.89 595.28" style="enable-background:new 0 0 841.89 595.28;" xml:space="preserve">
<style type="text/css">
	.st0{fill:#FFFFFF;}
</style>
<g id="Layer_2">
</g>
<g id="Layer_1">
	<g>
		<path class="st0" d="M376.94,204.87c-15.16,0-28.65,4.74-38.6,13.97v-59.2h-44.99v162.24v2.17v13.43h44.99v-13.43v-2.17v-48.57
			c0-21.31,11.13-30.31,25.57-30.31c13.02,0,21.08,7.81,21.08,26.28v52.6v2.17v13.43h44.99v-13.43v-2.17v-59.94
			C429.98,222.16,407.01,204.87,376.94,204.87z"/>
		<path class="st0" d="M540.8,321.61v6.37v1.52v7.97h42.86v-7.97v-1.52V207h-44.99v61.8c0,21.55-10.89,30.31-24.15,30.31
			c-13.5,0-21.31-7.81-21.31-27.7V207h-44.99v71.75c0,40.73,22.97,58.73,54.46,58.73C517.36,337.48,531.09,332.27,540.8,321.61z"/>
		<path class="st0" d="M645.94,329.51v-1.52v-5.43c8.52,10.18,21.08,14.92,37.89,14.92c34.81,0,62.99-25.57,62.99-66.54
			c0-40.73-28.18-66.07-62.99-66.07c-14.92,0-27,4.26-35.76,13.26v-58.49h-44.99v168.35v1.52v7.97h42.86V329.51z M674.35,240.63
			c15.16,0,26.99,10.89,26.99,30.31c0,19.65-11.84,30.78-26.99,30.78c-15.16,0-27-11.13-27-30.78
			C647.36,251.52,659.2,240.63,674.35,240.63z"/>
		<polygon class="st0" points="229.6,321.88 229.6,324.05 229.6,337.48 280.84,337.48 280.84,324.05 280.84,321.88 280.84,159.65 
			229.6,159.65 		"/>
		<polygon class="st0" points="183.33,321.88 183.33,324.05 183.33,337.48 217.09,337.48 217.09,324.05 217.09,321.88 
			217.09,159.65 183.33,159.65 		"/>
		<polygon class="st0" points="151.98,321.88 151.98,324.05 151.98,337.48 170.82,337.48 170.82,324.05 170.82,321.88 
			170.82,159.65 151.98,159.65 		"/>
		<polygon class="st0" points="130.04,321.88 130.04,324.05 130.04,337.48 139.47,337.48 139.47,324.05 139.47,321.88 
			139.47,159.65 130.04,159.65 		"/>
		<polygon class="st0" points="117.53,324.05 117.53,321.88 117.53,159.65 111.43,159.65 111.43,321.88 111.43,324.05 
			111.43,337.48 117.53,337.48 		"/>
		<polygon class="st0" points="98.92,324.05 98.92,321.88 98.92,159.65 95.87,159.65 95.87,321.88 95.87,324.05 95.87,337.48 
			98.92,337.48 		"/>
		<path class="st0" d="M113.77,374.15l-17.93,39.59h5.83l4.35-9.9h21.04l4.35,9.9h5.94l-17.99-39.59H113.77z M108,399.32l8.54-19.4
			l8.54,19.4H108z"/>
		<polygon class="st0" points="200.36,403.68 176.61,374.15 171.97,374.15 171.97,413.74 177.63,413.74 177.63,384.22 
			201.38,413.74 206.02,413.74 206.02,374.15 200.36,374.15 		"/>
		<path class="st0" d="M234.02,374.15h-16.69v39.59h16.69c12.73,0,21.38-8.03,21.38-19.8C255.4,382.18,246.74,374.15,234.02,374.15z
			 M233.68,408.82h-10.69v-29.75h10.69c9.78,0,16.06,6,16.06,14.87C249.74,402.83,243.46,408.82,233.68,408.82z"/>
		<rect x="265.18" y="374.15" class="st0" width="5.66" height="39.59"/>
		<polygon class="st0" points="312.24,403.68 288.49,374.15 283.85,374.15 283.85,413.74 289.5,413.74 289.5,384.22 313.26,413.74 
			317.9,413.74 317.9,374.15 312.24,374.15 		"/>
		<path class="st0" d="M347.59,374.15h-16.69v39.59h16.69c12.73,0,21.38-8.03,21.38-19.8C368.97,382.18,360.32,374.15,347.59,374.15
			z M347.25,408.82h-10.69v-29.75h10.69c9.78,0,16.06,6,16.06,14.87C363.32,402.83,357.04,408.82,347.25,408.82z"/>
		<path class="st0" d="M390.13,374.15l-17.93,39.59h5.83l4.35-9.9h21.04l4.36,9.9h5.94l-17.99-39.59H390.13z M384.36,399.32
			l8.54-19.4l8.54,19.4H384.36z"/>
		<rect x="448.33" y="374.15" class="st0" width="5.66" height="39.59"/>
		<polygon class="st0" points="493.69,403.68 469.93,374.15 465.29,374.15 465.29,413.74 470.95,413.74 470.95,384.22 
			494.71,413.74 499.34,413.74 499.34,374.15 493.69,374.15 		"/>
		<rect x="512.35" y="374.15" class="st0" width="5.66" height="39.59"/>
		<polygon class="st0" points="525.31,379.07 538.88,379.07 538.88,413.74 544.48,413.74 544.48,379.07 558.05,379.07 
			558.05,374.15 525.31,374.15 		"/>
		<rect x="565.35" y="374.15" class="st0" width="5.66" height="39.59"/>
		<path class="st0" d="M595.95,374.15l-17.93,39.59h5.83l4.36-9.9h21.04l4.36,9.9h5.94l-17.99-39.59H595.95z M590.18,399.32
			l8.54-19.4l8.54,19.4H590.18z"/>
		<polygon class="st0" points="618.86,379.07 632.43,379.07 632.43,413.74 638.03,413.74 638.03,379.07 651.61,379.07 
			651.61,374.15 618.86,374.15 		"/>
		<rect x="658.9" y="374.15" class="st0" width="5.66" height="39.59"/>
		<polygon class="st0" points="691.54,406.67 677.28,374.15 671.18,374.15 688.6,413.74 694.2,413.74 711.56,374.15 705.9,374.15 		
			"/>
		<polygon class="st0" points="723.38,396.04 743.23,396.04 743.23,391.23 723.38,391.23 723.38,379.07 745.67,379.07 
			745.67,374.15 717.72,374.15 717.72,413.74 746.46,413.74 746.46,408.82 723.38,408.82 		"/>
	</g>
</g>
</svg>
